name C:\Users\u0101727\Documents\MyRepositories\upper-imu-dc\Results\main_tracking\Case_48\ABD01_angularVelocities_groundFrame.mot
datacolumns 4
datarows 117
range 2.81000000 3.97000000
endheader 
time	radius_imu_x	radius_imu_y	radius_imu_z	
          2.81000000	          0.11721586	         -0.20813310	         -0.00491203	
          2.82000000	          0.11638417	         -0.20867794	         -0.00403696	
          2.83000000	          0.11915660	         -0.20927760	         -0.00267757	
          2.84000000	          0.12316085	         -0.21062495	         -0.00087492	
          2.85000000	          0.12734285	         -0.21278009	          0.00130831	
          2.86000000	          0.13120005	         -0.21564659	          0.00372269	
          2.87000000	          0.13448273	         -0.21896726	          0.00621888	
          2.88000000	          0.13703958	         -0.22245012	          0.00867371	
          2.89000000	          0.13875637	         -0.22587624	          0.01098969	
          2.90000000	          0.13953118	         -0.22917397	          0.01310314	
          2.91000000	          0.13926595	         -0.23245380	          0.01499774	
          2.92000000	          0.13786478	         -0.23602110	          0.01671449	
          2.93000000	          0.13523608	         -0.24037358	          0.01835348	
          2.94000000	          0.13129637	         -0.24617929	          0.02006704	
          2.95000000	          0.12597273	         -0.25422200	          0.02204451	
          2.96000000	          0.11920143	         -0.26530887	          0.02448967	
          2.97000000	          0.11092314	         -0.28014787	          0.02759370	
          2.98000000	          0.10107648	         -0.29921446	          0.03150690	
          2.99000000	          0.08959179	         -0.32263638	          0.03631565	
          3.00000000	          0.07638713	         -0.35013206	          0.04203079	
          3.01000000	          0.06136948	         -0.38102836	          0.04859049	
          3.02000000	          0.04444304	         -0.41435161	          0.05587585	
          3.03000000	          0.02552386	         -0.44896251	          0.06373330	
          3.04000000	          0.00455638	         -0.48370379	          0.07199819	
          3.05000000	         -0.01847216	         -0.51753799	          0.08051786	
          3.06000000	         -0.04352118	         -0.54966067	          0.08917262	
          3.07000000	         -0.07049035	         -0.57958064	          0.09789194	
          3.08000000	         -0.09921809	         -0.60715822	          0.10666346	
          3.09000000	         -0.12948572	         -0.63259165	          0.11553315	
          3.10000000	         -0.16102729	         -0.65634653	          0.12459638	
          3.11000000	         -0.19354584	         -0.67903858	          0.13398107	
          3.12000000	         -0.22673524	         -0.70129117	          0.14382741	
          3.13000000	         -0.26030285	         -0.72359231	          0.15426830	
          3.14000000	         -0.29398688	         -0.74617960	          0.16541304	
          3.15000000	         -0.32756414	         -0.76897513	          0.17733665	
          3.16000000	         -0.36084979	         -0.79157721	          0.19007771	
          3.17000000	         -0.39369459	         -0.81330158	          0.20364424	
          3.18000000	         -0.42598369	         -0.83325549	          0.21802450	
          3.19000000	         -0.45763793	         -0.85042718	          0.23319759	
          3.20000000	         -0.48861594	         -0.86377789	          0.24913882	
          3.21000000	         -0.51890961	         -0.87232767	          0.26581550	
          3.22000000	         -0.54852644	         -0.87522746	          0.28317272	
          3.23000000	         -0.57746754	         -0.87181466	          0.30111287	
          3.24000000	         -0.60571593	         -0.86165359	          0.31947649	
          3.25000000	         -0.63323484	         -0.84456080	          0.33803265	
          3.26000000	         -0.65996825	         -0.82061378	          0.35648338	
          3.27000000	         -0.68584268	         -0.79014499	          0.37448230	
          3.28000000	         -0.71077203	         -0.75372617	          0.39166351	
          3.29000000	         -0.73466217	         -0.71214674	          0.40767570	
          3.30000000	         -0.75741226	         -0.66638690	          0.42221580	
          3.31000000	         -0.77891750	         -0.61758629	          0.43505569	
          3.32000000	         -0.79907524	         -0.56700907	          0.44605521	
          3.33000000	         -0.81778605	         -0.51600324	          0.45515757	
          3.34000000	         -0.83494415	         -0.46595160	          0.46236936	
          3.35000000	         -0.85042806	         -0.41821918	          0.46773208	
          3.36000000	         -0.86410436	         -0.37410367	          0.47129348	
          3.37000000	         -0.87584123	         -0.33478913	          0.47308564	
          3.38000000	         -0.88552064	         -0.30130373	          0.47311047	
          3.39000000	         -0.89304363	         -0.27448857	          0.47132747	
          3.40000000	         -0.89832831	         -0.25498484	          0.46763900	
          3.41000000	         -0.90130363	         -0.24323868	          0.46187471	
          3.42000000	         -0.90190584	         -0.23951438	          0.45378456	
          3.43000000	         -0.90008061	         -0.24389545	          0.44305538	
          3.44000000	         -0.89578395	         -0.25625823	          0.42935857	
          3.45000000	         -0.88897655	         -0.27625249	          0.41240886	
          3.46000000	         -0.87963343	         -0.30340837	          0.39195111	
          3.47000000	         -0.86777455	         -0.33756026	          0.36761254	
          3.48000000	         -0.85335883	         -0.37812479	          0.33933173	
          3.49000000	         -0.83664823	         -0.42493503	          0.30706518	
          3.50000000	         -0.81794208	         -0.47811388	          0.27082813	
          3.51000000	         -0.79754473	         -0.53740641	          0.23118947	
          3.52000000	         -0.77652740	         -0.60212978	          0.18932943	
          3.53000000	         -0.75667936	         -0.67082053	          0.14749030	
          3.54000000	         -0.74016757	         -0.74077798	          0.10821653	
          3.55000000	         -0.72994119	         -0.81396803	          0.07935181	
          3.56000000	         -0.72961573	         -0.88993450	          0.06589885	
          3.57000000	         -0.73734489	         -0.96386384	          0.06353973	
          3.58000000	         -0.74893940	         -1.03528460	          0.06609619	
          3.59000000	         -0.76249687	         -1.10514627	          0.07296676	
          3.60000000	         -0.77692890	         -1.17240654	          0.08364496	
          3.61000000	         -0.79177659	         -1.23661195	          0.09754172	
          3.62000000	         -0.80661686	         -1.29731934	          0.11389054	
          3.63000000	         -0.82057902	         -1.35375883	          0.13201661	
          3.64000000	         -0.83304006	         -1.40557265	          0.15106136	
          3.65000000	         -0.84371302	         -1.45255102	          0.17021774	
          3.66000000	         -0.85246894	         -1.49448258	          0.18889795	
          3.67000000	         -0.85936266	         -1.53125261	          0.20674627	
          3.68000000	         -0.86466771	         -1.56289304	          0.22362491	
          3.69000000	         -0.86880969	         -1.58956388	          0.23959534	
          3.70000000	         -0.87228330	         -1.61152351	          0.25487938	
          3.71000000	         -0.87560196	         -1.62911492	          0.26980144	
          3.72000000	         -0.87926829	         -1.64276269	          0.28472677	
          3.73000000	         -0.88373529	         -1.65296068	          0.30001051	
          3.74000000	         -0.88935092	         -1.66023745	          0.31596311	
          3.75000000	         -0.89630753	         -1.66510455	          0.33282779	
          3.76000000	         -0.90462496	         -1.66800787	          0.35075922	
          3.77000000	         -0.91417626	         -1.66929688	          0.36979587	
          3.78000000	         -0.92473074	         -1.66920188	          0.38983042	
          3.79000000	         -0.93598555	         -1.66780717	          0.41059218	
          3.80000000	         -0.94759404	         -1.66503705	          0.43165393	
          3.81000000	         -0.95920901	         -1.66067354	          0.45246894	
          3.82000000	         -0.97053139	         -1.65439468	          0.47243190	
          3.83000000	         -0.98134563	         -1.64581738	          0.49094309	
          3.84000000	         -0.99153483	         -1.63454204	          0.50745459	
          3.85000000	         -1.00107027	         -1.62019498	          0.52149367	
          3.86000000	         -1.00997597	         -1.60246163	          0.53266996	
          3.87000000	         -1.01828675	         -1.58111237	          0.54067366	
          3.88000000	         -1.02602215	         -1.55602571	          0.54526933	
          3.89000000	         -1.03317998	         -1.52720539	          0.54628918	
          3.90000000	         -1.03973492	         -1.49478162	          0.54362958	
          3.91000000	         -1.04563137	         -1.45899435	          0.53725199	
          3.92000000	         -1.05077876	         -1.42017012	          0.52718651	
          3.93000000	         -1.05506099	         -1.37870318	          0.51353466	
          3.94000000	         -1.05835592	         -1.33503943	          0.49646970	
          3.95000000	         -1.06055217	         -1.28965642	          0.47623234	
          3.96000000	         -1.06155787	         -1.24303895	          0.45312042	
          3.97000000	         -1.06130317	         -1.19565481	          0.42747328	
